# xmcd
#
# Track frame offsets:
#	150
#	15606
#	26748
#	45308
#	68793
#	100719
#	125547
#	146058
#
# Disc length: 2528 seconds
# Revision: 0
# Processed by: cddbd v1.5.2PL0 Copyright (c) Steve Scherf et al.
# Submitted via: dBpowerAMP V12.0
#
DISCID=6509de08
DTITLE=The Steel Wheels - Live at the Station Inn, Vol. 1
DYEAR=2018
DGENRE=Bluegrass/Americana
TTITLE0=Breaking Like the Sun
TTITLE1=With It All Stripped Away
TTITLE2=Ghost of Myself
TTITLE3=Hold On
TTITLE4=Cuckoo/Cluck Old Hen
TTITLE5=Go Up to That Mountain
TTITLE6=Red Wing
TTITLE7=Long Way to Go
EXTD=
EXTT0=
EXTT1=
EXTT2=
EXTT3=
EXTT4=
EXTT5=
EXTT6=
EXTT7=
PLAYORDER=
